<svg id="visual" viewBox="0 0 1920 1080" width="1920" height="1080" xmlns="http://www.w3.org/2000/svg" xmlns:xlink="http://www.w3.org/1999/xlink" version="1.1"><rect x="0" y="0" width="1920" height="1080" fill="#030712"></rect><path d="M0 767L45.7 763C91.3 759 182.7 751 274.2 735.2C365.7 719.3 457.3 695.7 548.8 696.3C640.3 697 731.7 722 823 733.5C914.3 745 1005.7 743 1097 727.5C1188.3 712 1279.7 683 1371.2 690.5C1462.7 698 1554.3 742 1645.8 754.5C1737.3 767 1828.7 748 1874.3 738.5L1920 729L1920 1081L1874.3 1081C1828.7 1081 1737.3 1081 1645.8 1081C1554.3 1081 1462.7 1081 1371.2 1081C1279.7 1081 1188.3 1081 1097 1081C1005.7 1081 914.3 1081 823 1081C731.7 1081 640.3 1081 548.8 1081C457.3 1081 365.7 1081 274.2 1081C182.7 1081 91.3 1081 45.7 1081L0 1081Z" fill="#fa7268"></path><path d="M0 744L45.7 750C91.3 756 182.7 768 274.2 778.7C365.7 789.3 457.3 798.7 548.8 796.2C640.3 793.7 731.7 779.3 823 769.3C914.3 759.3 1005.7 753.7 1097 749.7C1188.3 745.7 1279.7 743.3 1371.2 750.2C1462.7 757 1554.3 773 1645.8 792C1737.3 811 1828.7 833 1874.3 844L1920 855L1920 1081L1874.3 1081C1828.7 1081 1737.3 1081 1645.8 1081C1554.3 1081 1462.7 1081 1371.2 1081C1279.7 1081 1188.3 1081 1097 1081C1005.7 1081 914.3 1081 823 1081C731.7 1081 640.3 1081 548.8 1081C457.3 1081 365.7 1081 274.2 1081C182.7 1081 91.3 1081 45.7 1081L0 1081Z" fill="#ef5f67"></path><path d="M0 811L45.7 812.8C91.3 814.7 182.7 818.3 274.2 832.3C365.7 846.3 457.3 870.7 548.8 885.8C640.3 901 731.7 907 823 899.2C914.3 891.3 1005.7 869.7 1097 865.5C1188.3 861.3 1279.7 874.7 1371.2 878C1462.7 881.3 1554.3 874.7 1645.8 874C1737.3 873.3 1828.7 878.7 1874.3 881.3L1920 884L1920 1081L1874.3 1081C1828.7 1081 1737.3 1081 1645.8 1081C1554.3 1081 1462.7 1081 1371.2 1081C1279.7 1081 1188.3 1081 1097 1081C1005.7 1081 914.3 1081 823 1081C731.7 1081 640.3 1081 548.8 1081C457.3 1081 365.7 1081 274.2 1081C182.7 1081 91.3 1081 45.7 1081L0 1081Z" fill="#e34c67"></path><path d="M0 921L45.7 919C91.3 917 182.7 913 274.2 913.7C365.7 914.3 457.3 919.7 548.8 923.3C640.3 927 731.7 929 823 934.2C914.3 939.3 1005.7 947.7 1097 937.5C1188.3 927.3 1279.7 898.7 1371.2 900.5C1462.7 902.3 1554.3 934.7 1645.8 935.2C1737.3 935.7 1828.7 904.3 1874.3 888.7L1920 873L1920 1081L1874.3 1081C1828.7 1081 1737.3 1081 1645.8 1081C1554.3 1081 1462.7 1081 1371.2 1081C1279.7 1081 1188.3 1081 1097 1081C1005.7 1081 914.3 1081 823 1081C731.7 1081 640.3 1081 548.8 1081C457.3 1081 365.7 1081 274.2 1081C182.7 1081 91.3 1081 45.7 1081L0 1081Z" fill="#d53867"></path><path d="M0 1014L45.7 1016.8C91.3 1019.7 182.7 1025.3 274.2 1027.7C365.7 1030 457.3 1029 548.8 1020.5C640.3 1012 731.7 996 823 993.2C914.3 990.3 1005.7 1000.7 1097 1004.2C1188.3 1007.7 1279.7 1004.3 1371.2 1004C1462.7 1003.7 1554.3 1006.3 1645.8 1011.5C1737.3 1016.7 1828.7 1024.3 1874.3 1028.2L1920 1032L1920 1081L1874.3 1081C1828.7 1081 1737.3 1081 1645.8 1081C1554.3 1081 1462.7 1081 1371.2 1081C1279.7 1081 1188.3 1081 1097 1081C1005.7 1081 914.3 1081 823 1081C731.7 1081 640.3 1081 548.8 1081C457.3 1081 365.7 1081 274.2 1081C182.7 1081 91.3 1081 45.7 1081L0 1081Z" fill="#c62368"></path></svg>